Coordinates
version=1
nRows=13
nColumns=22
inDegrees=yes

Units are S.I. units (second, meters, Newtons, ...)
If the header above contains a line with 'inDegrees', this indicates whether rotational values are in degrees (yes) or radians (no).

endheader
time	pelvis_tilt	pelvis_list	pelvis_rotation	pelvis_tx	pelvis_ty	pelvis_tz	hip_flexion_r	hip_adduction_r	hip_rotation_r	knee_angle_r	ankle_angle_r	subtalar_angle_r	hip_flexion_l	hip_adduction_l	hip_rotation_l	knee_angle_l	ankle_angle_l	subtalar_angle_l	lumbar_extension	lumbar_bending	lumbar_rotation
      5.95000000	     -3.30176522	     -2.11178616	    299.94223451	     -0.62155207	      0.94261469	      0.60306633	     28.99572681	      0.78022327	      5.95635929	    -34.21215648	     10.99713889	      6.33220468	      0.66363170	      8.07133357	     18.21066014	    -23.24727723	     13.03290608	    -19.54757282	     -7.25992430	      1.97971878	     -5.72214840
      5.96000000	     -3.16855280	     -2.10850532	    300.70745144	     -0.61834423	      0.94184785	      0.60939256	     29.16033584	      0.70900051	      6.35575841	    -32.22603476	     11.04040547	      6.67994033	      0.05407489	      8.06472272	     18.58385394	    -23.14734695	     13.23201509	    -19.55017601	     -7.28103539	      1.88076051	     -5.85239047
      5.97000000	     -3.04606336	     -2.07564907	    301.48501425	     -0.61506713	      0.94098939	      0.61569481	     29.30265614	      0.59697056	      6.68121261	    -30.20532273	     11.12049612	      7.03925352	     -0.52016564	      8.04966478	     18.89888127	    -23.04947347	     13.43383090	    -19.57149811	     -7.26652068	      1.78367547	     -6.02423758
      5.98000000	     -2.93179522	     -2.02113369	    302.26196216	     -0.61174401	      0.94006408	      0.62200816	     29.41196804	      0.45564725	      6.95994465	    -28.15441428	     11.24154574	      7.46364665	     -1.07682004	      8.02128795	     19.15731070	    -22.94056896	     13.62963779	    -19.58878383	     -7.22501540	      1.68234158	     -6.21860411
      5.99000000	     -2.83800647	     -1.94176876	    303.06152191	     -0.60832195	      0.93905557	      0.62829627	     29.49950112	      0.27864904	      7.16586066	    -26.08710106	     11.36952915	      7.80031220	     -1.59716478	      7.97752469	     19.39999656	    -22.84036190	     13.82769257	    -19.60984472	     -7.14615142	      1.59537126	     -6.46482003
      6.00000000	     -2.72715719	     -1.85922997	    303.81748820	     -0.60487295	      0.93803698	      0.63463091	     29.53175300	      0.08332961	      7.41603428	    -24.02507467	     11.55518959	      8.47728730	     -2.13375906	      7.93852185	     19.58340607	    -22.72633634	     13.98575552	    -19.56994506	     -7.07733062	      1.48889101	     -6.65268402
      6.01000000	     -2.63902942	     -1.75807924	    304.61266853	     -0.60130826	      0.93693709	      0.64091312	     29.55077438	     -0.15312078	      7.57281047	    -21.99381190	     11.71580005	      8.94075070	     -2.61733159	      7.88849838	     19.80562898	    -22.66486357	     14.15234338	    -19.53916451	     -6.97936840	      1.40265605	     -6.89848920
      6.02000000	     -2.56045881	     -1.63956792	    305.39688481	     -0.59766793	      0.93578388	      0.64722922	     29.56481860	     -0.41306439	      7.70334699	    -20.03635084	     11.87222958	      9.45130445	     -3.08841001	      7.83157194	     20.04212584	    -22.59779881	     14.31667894	    -19.47389042	     -6.85677605	      1.31892392	     -7.13755839
      6.03000000	     -2.48904949	     -1.51058395	    306.19889694	     -0.59392688	      0.93458525	      0.65353311	     29.57933354	     -0.70871436	      7.74687900	    -18.19293739	     12.00570111	      9.86224916	     -3.53491691	      7.77015718	     20.31986378	    -22.56025832	     14.47979659	    -19.39652412	     -6.72251851	      1.24267993	     -7.41115767
      6.04000000	     -2.42120326	     -1.38655460	    307.00232852	     -0.59011133	      0.93337034	      0.65984044	     29.58759641	     -1.02137353	      7.71329904	    -16.49266932	     12.13985818	     10.25548831	     -3.96833431	      7.70473798	     20.66253621	    -22.56670556	     14.63552405	    -19.27620992	     -6.59594791	      1.17380045	     -7.65574698
      6.05000000	     -2.35294368	     -1.26405785	    307.81942213	     -0.58619064	      0.93215508	      0.66614524	     29.60859630	     -1.35826449	      7.56390864	    -14.98855688	     12.23978694	     10.60227487	     -4.40076494	      7.63243035	     21.06485864	    -22.58870471	     14.79485773	    -19.11316678	     -6.47477512	      1.11385109	     -7.92446379
      6.06000000	     -2.29792974	     -1.12814986	    308.66759240	     -0.58216289	      0.93090925	      0.67240117	     29.67332436	     -1.71926133	      7.27279123	    -13.71245353	     12.30199302	     10.71809456	     -4.79161525	      7.55981155	     21.56489515	    -22.66370893	     14.90584373	    -19.03049797	     -6.34039829	      1.06445953	     -8.21634673
      6.07000000	     -2.22800237	     -1.05965982	    309.52221061	     -0.57803764	      0.92978095	      0.67868415	     29.68825966	     -2.06200682	      6.86726870	    -12.67563609	     12.42445633	     10.98952835	     -5.24369426	      7.44168191	     22.09742513	    -22.75672330	     15.06388937	    -18.71587596	     -6.28664402	      1.05823775	     -8.51767849
